<svg width="960.0px" height="193.0px" xmlns="http://www.w3.org/2000/svg" version="1.1">

<path d="M 0.0 0.0 L 960.0 0.0 L 960.0 193.0 L 0.0 193.0 L 0.0 0.0 Z" fill="#ffffff" stroke="none" stroke-width="1.0" /><g transform="translate(20.0,20.0)">
<path d="M 0.0 0.0 L 195.0 0.0 L 195.0 162.0 L 0.0 162.0 L 0.0 0.0 Z" fill="#ffffff" stroke="none" stroke-width="1.0" />
<path d="M 0.0 30.0 L 195.0 30.0 M 0.0 38.0 L 195.0 38.0 M 0.0 46.0 L 195.0 46.0 M 0.0 54.0 L 195.0 54.0 M 0.0 62.0 L 195.0 62.0 Z" fill="none" stroke="#d6d6d6" stroke-width="0.75" />
<path d="M 0.0 91.0 L 195.0 91.0 M 0.0 101.0 L 195.0 101.0 M 0.0 111.0 L 195.0 111.0 M 0.0 121.0 L 195.0 121.0 M 0.0 131.0 L 195.0 131.0 M 0.0 141.0 L 195.0 141.0 Z" fill="none" stroke="#d6d6d6" stroke-width="0.75" />
<path d="M 67.77043 30.40856 C 68.324905 30.40856 68.821014 30.350195 69.25876 30.20428 C 69.6965 30.058365 69.959145 30.0 70.04669 30.0 C 70.192604 30.0 70.28015 30.029182 70.36771 30.116732 C 70.42607 30.175097 70.45525 30.233463 70.484436 30.321012 C 70.484436 30.379377 70.45525 30.437744 70.42607 30.496109 L 61.933853 40.35992 L 66.924126 40.35992 L 66.924126 36.449417 C 66.924126 36.18677 67.01167 35.95331 67.1284 35.807392 C 67.3035 35.661476 67.4786 35.515564 67.71206 35.4572 C 67.97471 35.340466 68.26653 35.07782 68.64591 34.640076 C 68.937744 34.319065 69.317116 33.706226 69.75486 32.801556 C 69.81323 32.684826 69.90078 32.626457 70.01751 32.626457 C 70.28015 32.626457 70.39688 32.772373 70.42607 33.03502 L 70.42607 40.35992 L 72.55642 40.35992 C 72.84825 40.35992 72.99416 40.505836 73.023346 40.797665 C 73.023346 41.089493 72.877426 41.235405 72.55642 41.235405 L 70.42607 41.235405 L 70.42607 41.468872 C 70.42607 42.28599 70.63035 42.928013 71.00973 43.45331 C 71.44747 43.9786 71.97276 44.270428 72.5856 44.270428 C 72.81906 44.270428 72.9358 44.387157 72.9358 44.62062 C 72.9358 44.854084 72.81906 44.970818 72.5856 44.970818 C 72.14786 44.970818 71.50584 44.91245 70.601166 44.79572 C 69.696495 44.649803 69.054474 44.59144 68.64591 44.59144 C 68.23735 44.59144 67.56615 44.649803 66.69066 44.79572 C 65.81517 44.91245 65.17315 44.970818 64.735405 44.970818 C 64.501945 44.970818 64.385216 44.854084 64.385216 44.62062 C 64.385216 44.387157 64.501945 44.270428 64.735405 44.270428 C 65.34825 44.270428 65.87354 43.9786 66.31128 43.45331 C 66.71984 42.89883 66.924126 42.25681 66.924126 41.468872 L 66.924126 41.235405 L 61.933853 41.235405 C 61.61284 41.235405 61.379375 41.17704 61.233463 41.001945 C 61.087547 40.885212 61.0 40.710114 61.0 40.53502 C 61.0 40.476654 61.145912 40.272373 61.437744 39.92218 C 61.729572 39.571983 62.079765 39.105057 62.488327 38.492218 C 62.488327 38.492218 63.305447 37.20817 63.71401 36.449417 C 63.71401 36.449417 64.47276 34.78599 64.735405 33.706226 C 65.02724 32.65564 65.17315 31.575874 65.17315 30.496109 C 65.17315 30.175097 65.31907 30.029182 65.58171 30.029182 C 65.61089 30.029182 65.756805 30.058365 65.96109 30.11673 C 66.16537 30.175097 66.4572 30.233461 66.77821 30.32101 C 67.1284 30.379377 67.44942 30.40856 67.77043 30.40856 Z" fill="#000000" stroke="none" stroke-width="0.75" />
<path d="M 67.77043 47.40856 C 68.324905 47.40856 68.821014 47.350193 69.25876 47.20428 C 69.6965 47.058365 69.959145 47.0 70.04669 47.0 C 70.192604 47.0 70.28015 47.029182 70.36771 47.11673 C 70.42607 47.1751 70.45525 47.233463 70.484436 47.32101 C 70.484436 47.37938 70.45525 47.437744 70.42607 47.49611 L 61.933853 57.35992 L 66.924126 57.35992 L 66.924126 53.449417 C 66.924126 53.18677 67.01167 52.95331 67.1284 52.807392 C 67.3035 52.661476 67.4786 52.515564 67.71206 52.4572 C 67.97471 52.340466 68.26653 52.07782 68.64591 51.640076 C 68.937744 51.319065 69.317116 50.706226 69.75486 49.801556 C 69.81323 49.684826 69.90078 49.626457 70.01751 49.626457 C 70.28015 49.626457 70.39688 49.772373 70.42607 50.03502 L 70.42607 57.35992 L 72.55642 57.35992 C 72.84825 57.35992 72.99416 57.505836 73.023346 57.797665 C 73.023346 58.089493 72.877426 58.235405 72.55642 58.235405 L 70.42607 58.235405 L 70.42607 58.468872 C 70.42607 59.28599 70.63035 59.928013 71.00973 60.45331 C 71.44747 60.9786 71.97276 61.270428 72.5856 61.270428 C 72.81906 61.270428 72.9358 61.387157 72.9358 61.62062 C 72.9358 61.854084 72.81906 61.970818 72.5856 61.970818 C 72.14786 61.970818 71.50584 61.91245 70.601166 61.79572 C 69.696495 61.649803 69.054474 61.59144 68.64591 61.59144 C 68.23735 61.59144 67.56615 61.649803 66.69066 61.79572 C 65.81517 61.91245 65.17315 61.970818 64.735405 61.970818 C 64.501945 61.970818 64.385216 61.854084 64.385216 61.62062 C 64.385216 61.387157 64.501945 61.270428 64.735405 61.270428 C 65.34825 61.270428 65.87354 60.9786 66.31128 60.45331 C 66.71984 59.89883 66.924126 59.25681 66.924126 58.468872 L 66.924126 58.235405 L 61.933853 58.235405 C 61.61284 58.235405 61.379375 58.17704 61.233463 58.001945 C 61.087547 57.885212 61.0 57.710114 61.0 57.53502 C 61.0 57.476654 61.145912 57.272373 61.437744 56.92218 C 61.729572 56.571983 62.079765 56.105057 62.488327 55.492218 C 62.488327 55.492218 63.305447 54.20817 63.71401 53.449417 C 63.71401 53.449417 64.47276 51.78599 64.735405 50.706226 C 65.02724 49.65564 65.17315 48.575874 65.17315 47.49611 C 65.17315 47.175095 65.31907 47.029182 65.58171 47.029182 C 65.61089 47.029182 65.756805 47.058365 65.96109 47.11673 C 66.16537 47.175095 66.4572 47.233463 66.77821 47.32101 C 67.1284 47.379375 67.44942 47.408558 67.77043 47.408558 Z" fill="#000000" stroke="none" stroke-width="0.75" />
<path d="M 22.764973 22.115383 C 22.921913 22.036913 22.948072 22.036913 23.105015 22.036913 C 23.314268 22.06307 23.445057 22.14154 23.73278 22.455425 C 25.616081 24.39104 27.185501 27.843758 27.577856 30.773342 C 27.630169 31.244167 27.630169 32.34276 27.577856 32.839737 C 27.29013 35.533905 26.165377 37.99266 23.57584 41.52385 L 23.209644 42.020832 L 23.418898 42.62244 C 23.915882 44.061073 24.491331 45.81359 24.85753 47.095284 C 24.96216 47.409164 25.04063 47.67074 25.04063 47.696896 C 25.04063 47.696896 25.223728 47.696896 25.406826 47.723053 C 26.322319 47.80152 27.10703 48.01078 27.917896 48.40313 C 28.57182 48.74317 29.147274 49.13552 29.696568 49.658665 C 30.29818 50.260277 30.690535 50.80957 31.05673 51.568123 C 31.606026 52.666718 31.84144 53.81762 31.81528 54.96853 C 31.789125 55.700924 31.684496 56.25022 31.449085 56.930305 C 31.1352 57.924263 30.559748 58.83976 29.77504 59.62447 C 29.094955 60.30455 28.46719 60.72306 27.630169 61.063103 L 27.316284 61.193886 L 27.316284 62.135536 C 27.316284 63.469543 27.237814 65.038956 27.133184 65.980606 C 27.02856 66.94841 26.766989 67.86391 26.348476 68.700935 C 25.249886 70.92427 23.314268 72.10133 21.143244 71.89209 C 18.684484 71.65667 16.69656 69.98262 16.199577 67.73312 C 15.964161 66.713 16.068794 65.9283 16.487303 65.27437 C 17.036598 64.411194 18.082878 63.91421 19.102997 63.940365 C 20.30622 63.992683 21.274027 64.934326 21.457123 66.24218 C 21.58791 67.28845 21.143244 68.25626 20.30622 68.7794 C 19.835394 69.06713 19.181469 69.197914 18.684484 69.119446 C 18.606018 69.119446 18.527544 69.093285 18.527544 69.119446 L 18.84143 69.43333 C 19.416882 70.00878 20.070807 70.374985 20.907831 70.558075 C 21.090927 70.584236 21.247868 70.584236 21.666382 70.584236 C 22.137207 70.584236 22.189518 70.584236 22.451088 70.53192 C 22.81729 70.42729 23.131172 70.29651 23.418898 70.139565 C 24.726748 69.35486 25.616081 67.73312 25.851494 65.77136 C 25.929964 65.038956 26.008434 63.469543 26.008434 62.318638 C 26.008434 61.560085 26.008434 61.50777 25.956123 61.50777 C 25.851494 61.560085 25.302197 61.6124 24.909843 61.638554 C 24.41286 61.66471 23.57584 61.66471 23.183485 61.6124 C 21.640223 61.4293 20.227747 60.90616 18.998373 60.042976 C 17.167385 58.761288 15.859535 56.851826 15.31024 54.654644 C 14.604002 51.908165 15.100986 48.978584 16.827343 45.89206 C 17.55974 44.610374 18.265978 43.564095 20.018494 41.236122 L 21.012455 39.902122 L 20.829355 39.405136 C 19.573822 36.083202 19.15531 34.173744 19.024527 31.401108 C 18.972214 30.197887 19.024527 29.177761 19.181469 28.340742 C 19.573822 26.143559 20.593945 24.181787 22.189518 22.612366 C 22.503403 22.298483 22.63419 22.193855 22.764973 22.115383 M 24.831371 26.588224 C 24.569805 26.143559 24.622118 26.169712 24.386707 26.326658 C 23.65431 26.771324 22.89576 27.451405 22.34646 28.131483 C 21.221714 29.57012 20.593945 31.244167 20.515476 33.048996 C 20.489319 33.78139 20.56779 34.252216 20.907831 35.37696 C 21.169397 36.292458 21.901793 38.5158 21.95411 38.56811 C 21.95411 38.59427 22.111048 38.411175 22.26799 38.17576 C 24.072823 35.58622 25.04063 33.467506 25.406826 31.348791 C 25.485298 30.799496 25.53761 30.354828 25.563768 29.727062 C 25.589928 28.28843 25.432985 27.582191 24.831371 26.588224 M 22.581877 44.191864 C 22.424934 43.694878 22.26799 43.302525 22.26799 43.302525 C 22.241835 43.302525 21.143244 44.76731 20.672415 45.421238 C 19.129156 47.592266 18.187506 49.34478 17.638206 51.071136 C 17.27201 52.143574 17.115068 53.137543 17.062756 54.236134 C 17.062756 54.837746 17.088915 55.20394 17.193539 55.64861 C 17.795153 57.976578 20.280064 59.886036 23.209644 60.30455 C 23.65431 60.35686 24.909843 60.35686 25.459139 60.30455 C 26.008434 60.226078 25.956123 60.252235 25.929964 60.016823 C 25.773026 57.53191 25.563768 56.014805 25.14526 53.765305 C 24.988314 52.823658 24.543648 50.835728 24.517488 50.80957 C 24.491331 50.783417 23.99435 50.835728 23.706627 50.9142 C 23.340427 50.99267 23.105015 51.071136 22.79113 51.22808 C 21.090927 52.091263 20.593945 54.053036 21.666382 55.64861 C 21.849482 55.91018 22.320305 56.381004 22.608032 56.564102 C 22.71266 56.642574 22.948072 56.799515 23.105015 56.877987 C 23.340427 57.00877 23.392738 57.061085 23.445057 57.165714 C 23.65431 57.505756 23.523525 57.924263 23.131172 58.107365 C 22.921913 58.21199 22.764973 58.185837 22.34646 57.976578 C 21.326344 57.4796 20.56779 56.799515 20.018494 55.962494 C 18.998373 54.393074 18.867586 52.37899 19.70461 50.678787 C 20.437006 49.213997 21.744852 48.22003 23.418898 47.853836 C 23.57584 47.80152 23.706627 47.775368 23.706627 47.775368 C 23.73278 47.749207 23.000385 45.368923 22.581877 44.191864 M 26.139221 50.94036 C 26.060753 50.94036 25.98228 50.9142 25.956123 50.9142 L 25.877651 50.88804 L 26.008434 51.43734 C 26.610046 54.07919 27.054714 56.956455 27.211655 59.389057 C 27.237814 59.650627 27.237814 59.859882 27.237814 59.859882 C 27.263973 59.859882 27.60401 59.70294 27.78711 59.572155 C 28.231777 59.31058 28.65029 58.91823 28.99033 58.47356 C 29.801197 57.401123 30.08892 56.06712 29.77504 54.706955 C 29.539627 53.608364 28.911861 52.58824 28.022522 51.882008 C 27.473227 51.463493 26.740831 51.097298 26.139221 50.94036 Z" fill="#000000" stroke="none" stroke-width="0.75" />
<path d="M 93.46439 23.631191 C 93.59136 23.558638 93.79088 23.613052 93.863434 23.776297 C 93.89971 23.84885 93.89971 23.903263 93.89971 25.172935 C 93.89971 25.916603 93.89971 26.515162 93.91785 26.515162 C 93.91785 26.515162 94.08109 26.44261 94.28061 26.370056 C 94.69779 26.206814 94.752205 26.188675 94.86103 26.279366 C 94.988 26.370056 94.988 26.388195 94.988 27.113722 C 94.988 27.73042 94.988 27.784836 94.95172 27.839249 C 94.933586 27.875526 94.89731 27.911802 94.87917 27.92994 C 94.842896 27.948078 94.62524 28.056908 94.3713 28.147598 L 93.91785 28.347118 L 93.89971 29.81631 C 93.89971 30.614391 93.89971 31.285505 93.91785 31.285505 C 93.91785 31.285505 94.08109 31.212952 94.28061 31.1404 C 94.69779 30.977156 94.752205 30.959017 94.86103 31.049707 C 94.988 31.1404 94.988 31.158537 94.988 31.884064 C 94.988 32.500763 94.988 32.555176 94.95172 32.609592 C 94.933586 32.64587 94.89731 32.682144 94.87917 32.700283 C 94.842896 32.718422 94.62524 32.82725 94.3713 32.917942 L 93.91785 33.117462 L 93.89971 34.641068 C 93.89971 36.01957 93.88157 36.18281 93.863434 36.23723 C 93.736465 36.454887 93.428116 36.454887 93.30115 36.23723 C 93.28301 36.18281 93.26487 36.03771 93.26487 34.768036 L 93.26487 33.371395 L 92.48493 33.679745 L 91.72313 33.988094 L 91.72313 35.457287 C 91.72313 37.01717 91.72313 36.980892 91.63244 37.071587 C 91.59616 37.126 91.46919 37.180412 91.41478 37.180412 C 91.342224 37.180412 91.215256 37.126 91.178986 37.071587 C 91.08829 36.980892 91.08829 37.01717 91.08829 35.60239 C 91.08829 34.858727 91.08829 34.260166 91.07015 34.260166 C 91.07015 34.260166 90.906906 34.332718 90.70739 34.405273 C 90.290215 34.568516 90.235794 34.586655 90.12697 34.495964 C 90.0 34.405273 90.0 34.387135 90.0 33.661606 C 90.0 33.044907 90.0 32.990494 90.03628 32.936077 C 90.05441 32.899803 90.09069 32.863525 90.108826 32.845387 C 90.1451 32.82725 90.36276 32.718422 90.6167 32.62773 L 91.08829 32.42821 L 91.08829 30.959017 C 91.08829 30.160938 91.08829 29.489824 91.07015 29.489824 C 91.07015 29.489824 90.906906 29.562378 90.70739 29.63493 C 90.290215 29.798174 90.235794 29.81631 90.12697 29.72562 C 90.0 29.63493 90.0 29.616793 90.0 28.891264 C 90.0 28.274567 90.0 28.220152 90.03628 28.165737 C 90.05441 28.129461 90.09069 28.093184 90.108826 28.075047 C 90.1451 28.056908 90.36276 27.948078 90.6167 27.857388 L 91.08829 27.657867 L 91.08829 26.13426 C 91.08829 24.755758 91.10643 24.592514 91.124565 24.538101 C 91.25153 24.320442 91.55988 24.320442 91.68685 24.538101 C 91.70499 24.592514 91.72313 24.73762 91.72313 26.007294 L 91.741264 27.403933 L 92.50307 27.095585 L 93.26487 26.787235 L 93.26487 25.318043 C 93.26487 23.93954 93.26487 23.84885 93.30115 23.776297 C 93.337425 23.703743 93.3737 23.667467 93.46439 23.631191 M 93.26487 30.070246 L 93.26487 28.601053 L 92.48493 28.909403 L 91.72313 29.217752 L 91.72313 30.705082 L 91.72313 32.174274 L 91.77754 32.156136 C 91.81382 32.138 92.15845 31.992893 92.55749 31.847788 L 93.26487 31.557577 L 93.26487 30.070246 Z" fill="#404040" stroke="none" stroke-width="0.75" />
<path d="M 95.52 31.231998 C 95.52 32.456 96.715195 33.68 97.895996 33.68 C 101.495995 33.68 105.09599 31.231998 105.09599 28.855999 C 105.09599 27.6752 103.871994 26.48 102.71999 26.48 C 99.119995 26.48 95.52 28.855999 95.52 31.231998 Z" fill="#404040" stroke="none" stroke-width="1.0" />
<path d="M 90.5 87.25 L 105.5 87.25 L 105.5 94.75 L 90.5 94.75 L 90.5 87.25 Z" fill="#ffffff" stroke="none" stroke-width="1.0" />
<text x='90.5' y='94.75' font-family="Default" font-size="15.0" fill="blue" >12</text>
<path d="M 95.5 30.96 L 96.5 30.96 L 96.5 61.0 L 95.5 61.0 M 95.5 30.96 Z" fill="#404040" stroke="none" stroke-width="0.75" />
<path d="M 118.8697 38.930904 C 118.953735 38.88889 119.03775 38.88889 119.121796 38.909897 C 119.18482 38.951912 122.441025 42.81735 122.525055 42.985413 C 122.67212 43.25851 122.630104 43.531612 122.42001 43.867737 C 122.25196 44.098824 121.91583 44.434948 121.28561 44.960144 C 120.970474 45.21224 120.67638 45.48534 120.61334 45.548363 C 119.9621 46.241623 119.815056 47.292007 120.19319 48.0903 C 120.319244 48.363403 120.382256 48.426434 121.11754 49.266735 C 122.462036 50.842327 122.39902 50.7793 122.39902 50.905357 C 122.39902 51.031387 122.27296 51.15744 122.14693 51.17846 C 122.04188 51.17846 121.95785 51.136433 121.81079 50.98938 C 121.28561 50.464188 120.08816 50.086044 119.43691 50.233093 C 119.121796 50.29612 118.953735 50.422176 118.80669 50.716274 C 118.72264 50.92635 118.659615 51.17846 118.63862 51.514565 C 118.6176 51.976753 118.701645 52.45993 118.848694 52.922092 C 118.953735 53.21621 119.016754 53.384277 119.16381 53.594353 C 119.28986 53.762417 119.28986 53.82543 119.18482 53.88845 C 119.100784 53.930477 119.05877 53.90947 118.8697 53.678375 C 118.11343 52.712017 117.42016 51.32551 117.18908 50.29612 C 117.0 49.560856 117.084045 49.05666 117.37814 48.846584 C 117.5252 48.76256 117.672264 48.741547 117.98737 48.741547 C 118.59661 48.783558 119.457924 49.01465 120.29823 49.371773 L 120.571335 49.497826 L 119.41589 48.132313 C 117.651245 46.052547 117.58822 45.96852 117.5252 45.842472 C 117.46219 45.674408 117.44117 45.506348 117.504196 45.317276 C 117.60923 44.98115 117.903336 44.645027 118.78567 43.90975 C 119.100784 43.65766 119.373886 43.405567 119.43691 43.363552 C 119.92009 42.838356 120.151184 42.10308 120.06714 41.409824 C 120.02513 41.17874 119.92009 40.821606 119.79404 40.632538 C 119.73102 40.527496 119.47892 40.21238 119.22684 39.897263 C 118.97475 39.603153 118.74365 39.330055 118.72264 39.288036 C 118.659615 39.16199 118.72264 38.993927 118.8697 38.930904 Z" fill="#404040" stroke="none" stroke-width="0.75" />
<path d="M 139.86969 38.930904 C 139.95374 38.88889 140.03775 38.88889 140.1218 38.909897 C 140.18483 38.951912 143.44102 42.81735 143.52505 42.985413 C 143.67212 43.25851 143.6301 43.531612 143.42001 43.867737 C 143.25197 44.098824 142.91583 44.434948 142.28561 44.960144 C 141.97047 45.21224 141.67638 45.48534 141.61334 45.548363 C 140.9621 46.241623 140.81505 47.292007 141.19319 48.0903 C 141.31924 48.363403 141.38225 48.426434 142.11754 49.266735 C 143.46204 50.842327 143.39902 50.7793 143.39902 50.905357 C 143.39902 51.031387 143.27296 51.15744 143.14693 51.17846 C 143.04187 51.17846 142.95784 51.136433 142.81079 50.98938 C 142.28561 50.464188 141.08815 50.086044 140.4369 50.233093 C 140.1218 50.29612 139.95374 50.422176 139.80669 50.716274 C 139.72264 50.92635 139.6596 51.17846 139.63861 51.514565 C 139.6176 51.976753 139.70164 52.45993 139.8487 52.922092 C 139.95374 53.21621 140.01675 53.384277 140.1638 53.594353 C 140.28986 53.762417 140.28986 53.82543 140.18483 53.88845 C 140.10078 53.930477 140.05878 53.90947 139.86969 53.678375 C 139.11343 52.712017 138.42015 51.32551 138.18909 50.29612 C 138.0 49.560856 138.08405 49.05666 138.37814 48.846584 C 138.52519 48.76256 138.67226 48.741547 138.98737 48.741547 C 139.5966 48.783558 140.45793 49.01465 141.29823 49.371773 L 141.57133 49.497826 L 140.4159 48.132313 C 138.65125 46.052547 138.58821 45.96852 138.52519 45.842472 C 138.46219 45.674408 138.44116 45.506348 138.5042 45.317276 C 138.60924 44.98115 138.90334 44.645027 139.78568 43.90975 C 140.10078 43.65766 140.37389 43.405567 140.4369 43.363552 C 140.92009 42.838356 141.15118 42.10308 141.06714 41.409824 C 141.02513 41.17874 140.92009 40.821606 140.79404 40.632538 C 140.73102 40.527496 140.47893 40.21238 140.22684 39.897263 C 139.97475 39.603153 139.74365 39.330055 139.72264 39.288036 C 139.6596 39.16199 139.72264 38.993927 139.86969 38.930904 Z" fill="#404040" stroke="none" stroke-width="0.75" />
<path d="M 160.86969 38.930904 C 160.95374 38.88889 161.03775 38.88889 161.1218 38.909897 C 161.18483 38.951912 164.44102 42.81735 164.52505 42.985413 C 164.67212 43.25851 164.6301 43.531612 164.42001 43.867737 C 164.25197 44.098824 163.91583 44.434948 163.28561 44.960144 C 162.97047 45.21224 162.67638 45.48534 162.61334 45.548363 C 161.9621 46.241623 161.81505 47.292007 162.19319 48.0903 C 162.31924 48.363403 162.38225 48.426434 163.11754 49.266735 C 164.46204 50.842327 164.39902 50.7793 164.39902 50.905357 C 164.39902 51.031387 164.27296 51.15744 164.14693 51.17846 C 164.04187 51.17846 163.95784 51.136433 163.81079 50.98938 C 163.28561 50.464188 162.08815 50.086044 161.4369 50.233093 C 161.1218 50.29612 160.95374 50.422176 160.80669 50.716274 C 160.72264 50.92635 160.6596 51.17846 160.63861 51.514565 C 160.6176 51.976753 160.70164 52.45993 160.8487 52.922092 C 160.95374 53.21621 161.01675 53.384277 161.1638 53.594353 C 161.28986 53.762417 161.28986 53.82543 161.18483 53.88845 C 161.10078 53.930477 161.05878 53.90947 160.86969 53.678375 C 160.11343 52.712017 159.42015 51.32551 159.18909 50.29612 C 159.0 49.560856 159.08405 49.05666 159.37814 48.846584 C 159.52519 48.76256 159.67226 48.741547 159.98737 48.741547 C 160.5966 48.783558 161.45793 49.01465 162.29823 49.371773 L 162.57133 49.497826 L 161.4159 48.132313 C 159.65125 46.052547 159.58821 45.96852 159.52519 45.842472 C 159.46219 45.674408 159.44116 45.506348 159.5042 45.317276 C 159.60924 44.98115 159.90334 44.645027 160.78568 43.90975 C 161.10078 43.65766 161.37389 43.405567 161.4369 43.363552 C 161.92009 42.838356 162.15118 42.10308 162.06714 41.409824 C 162.02513 41.17874 161.92009 40.821606 161.79404 40.632538 C 161.73102 40.527496 161.47893 40.21238 161.22684 39.897263 C 160.97475 39.603153 160.74365 39.330055 160.72264 39.288036 C 160.6596 39.16199 160.72264 38.993927 160.86969 38.930904 Z" fill="#404040" stroke="none" stroke-width="0.75" /></g>
<path d="M 35.35 36.3 C 35.35 37.15 36.18 38.0 37.0 38.0 C 39.5 38.0 42.0 36.3 42.0 34.65 C 42.0 33.83 41.149998 33.0 40.35 33.0 C 37.85 33.0 35.35 34.65 35.35 36.3 Z" fill="#000000" stroke="none" stroke-width="1.0" />
<path d="M 42.0 20.0 L 42.0 34.7 Z" fill="none" stroke="#000000" stroke-width="1.0" />
<text x='43.0' y='36.25' font-family="Default" font-size="10.0" fill="red" > = 120</text>
<text x='21.0' y='48.0' font-family="Default" font-size="10.0" fill="#ff0000" >1</text>
<path d="M 20.0 50.0 L 23.0 50.0 L 23.0 111.0 L 20.0 111.0 L 20.0 50.0 Z" fill="#000000" stroke="#000000" stroke-width="0.75" />
<path d="M 25.0 50.0 L 26.0 50.0 L 26.0 111.0 L 25.0 111.0 L 25.0 50.0 Z" fill="#000000" stroke="#000000" stroke-width="0.75" />
<path d="M 209.0 50.0 L 210.0 50.0 L 210.0 82.0 L 209.0 82.0 L 209.0 50.0 Z" fill="#000000" stroke="#000000" stroke-width="0.75" />
<path d="M 212.0 50.0 L 215.0 50.0 L 215.0 82.0 L 212.0 82.0 L 212.0 50.0 Z" fill="#000000" stroke="#000000" stroke-width="0.75" />
<path d="M 20.0 111.0 L 23.0 111.0 L 23.0 161.0 L 20.0 161.0 L 20.0 111.0 Z" fill="#000000" stroke="#000000" stroke-width="0.75" />
<path d="M 25.0 111.0 L 26.0 111.0 L 26.0 161.0 L 25.0 161.0 L 25.0 111.0 Z" fill="#000000" stroke="#000000" stroke-width="0.75" />
<path d="M 209.0 111.0 L 210.0 111.0 L 210.0 161.0 L 209.0 161.0 L 209.0 111.0 Z" fill="#000000" stroke="#000000" stroke-width="0.75" />
<path d="M 212.0 111.0 L 215.0 111.0 L 215.0 161.0 L 212.0 161.0 L 212.0 111.0 Z" fill="#000000" stroke="#000000" stroke-width="0.75" />
<path d="M 217.0 50.0 L 930.0 50.0 M 217.0 58.0 L 930.0 58.0 M 217.0 66.0 L 930.0 66.0 M 217.0 74.0 L 930.0 74.0 M 217.0 82.0 L 930.0 82.0 Z" fill="none" stroke="#d6d6d6" stroke-width="0.75" />
<path d="M 217.0 111.0 L 930.0 111.0 M 217.0 121.0 L 930.0 121.0 M 217.0 131.0 L 930.0 131.0 M 217.0 141.0 L 930.0 141.0 M 217.0 151.0 L 930.0 151.0 M 217.0 161.0 L 930.0 161.0 Z" fill="none" stroke="#d6d6d6" stroke-width="0.75" />
</svg>